<svg xmlns="http://www.w3.org/2000/svg" xmlns:xlink="http://www.w3.org/1999/xlink" width="512" zoomAndPan="magnify" viewBox="0 0 384 383.999986" height="512" preserveAspectRatio="xMidYMid meet" version="1.0"><rect x="-38.4" width="460.8" fill="#ffffff" y="-38.399999" height="460.799983" fill-opacity="1"/><rect x="-38.4" width="460.8" fill="#ffffff" y="-38.399999" height="460.799983" fill-opacity="1"/><path fill="#1ed760" d="M 288.148438 152.324219 C 253.351562 134.773438 212.25 124.5 168.824219 124.5 C 125.398438 124.5 120.148438 127.800781 97.425781 134.023438 L 99.375 133.574219 C 98.023438 134.023438 96.523438 134.25 94.875 134.25 C 86.625 134.25 79.949219 127.574219 79.949219 119.324219 C 79.949219 111.074219 84.300781 107.023438 90.300781 105.074219 L 90.449219 105.074219 C 148.273438 87.898438 243.449219 91.199219 303.75 127.050781 C 308.324219 129.898438 311.398438 134.851562 311.398438 140.625 C 311.398438 146.398438 310.648438 146.101562 309.375 148.351562 C 306.148438 152.101562 301.574219 154.351562 296.25 154.351562 C 290.925781 154.351562 290.550781 153.601562 288.148438 152.25 Z M 286.425781 197.925781 C 284.25 201.601562 280.351562 203.851562 275.851562 203.851562 C 271.351562 203.851562 271.199219 203.175781 269.25 201.898438 C 239.476562 184.949219 203.851562 174.976562 165.898438 174.976562 C 127.949219 174.976562 124.800781 178.050781 105.75 183.675781 L 107.25 183.300781 C 106.125 183.601562 104.851562 183.898438 103.5 183.898438 C 96.675781 183.898438 91.125 178.425781 91.125 171.523438 C 91.125 164.625 94.800781 161.324219 99.675781 159.75 C 119.25 153.976562 141.75 150.601562 165.074219 150.601562 C 208.351562 150.601562 249 162.226562 284.023438 182.398438 L 282.898438 181.726562 C 286.199219 183.824219 288.226562 187.351562 288.226562 191.476562 C 288.226562 195.601562 287.550781 196.050781 286.273438 197.851562 L 286.5 197.851562 L 286.425781 197.851562 Z M 266.925781 242.699219 C 265.199219 245.625 262.125 247.574219 258.449219 247.574219 C 254.773438 247.574219 254.550781 246.898438 252.976562 245.925781 C 226.949219 231.300781 195.898438 222.75 162.898438 222.75 C 129.898438 222.75 125.625 225.601562 108.375 230.851562 L 109.726562 230.550781 C 109.050781 230.773438 108.148438 230.851562 107.324219 230.851562 C 101.851562 230.851562 97.273438 226.273438 97.273438 220.800781 C 97.273438 215.324219 100.574219 212.175781 104.851562 211.050781 C 122.023438 206.023438 141.75 203.023438 162.148438 203.023438 C 199.125 203.023438 233.773438 212.625 263.851562 229.574219 L 262.726562 228.976562 C 266.023438 230.625 268.199219 233.925781 268.199219 237.75 C 268.199219 241.574219 267.675781 241.351562 266.773438 242.699219 Z M 192 7.5 C 102.074219 7.5 29.175781 80.398438 29.175781 170.324219 C 29.175781 260.25 102.074219 333.148438 192 333.148438 C 281.925781 333.148438 354.824219 260.25 354.824219 170.324219 C 354.601562 80.550781 281.851562 7.800781 192 7.5 Z M 192 7.5 " fill-opacity="1" fill-rule="nonzero"/><path fill="#fdc700" d="M 40.425781 263.25 L 339.523438 263.25 C 347.925781 263.25 354.824219 270 354.824219 278.324219 L 354.824219 361.425781 C 354.824219 369.75 348 376.5 339.523438 376.5 L 40.425781 376.5 C 32.023438 376.5 25.125 369.75 25.125 361.425781 L 25.125 278.324219 C 25.125 270 31.949219 263.25 40.425781 263.25 Z M 40.425781 263.25 " fill-opacity="1" fill-rule="nonzero"/><path fill="#733e0a" d="M 85.199219 359.476562 C 83.398438 359.476562 81.898438 358.875 80.773438 357.75 C 79.648438 356.625 79.050781 355.125 79.050781 353.398438 L 79.050781 286.425781 C 79.050781 284.625 79.648438 283.199219 80.773438 282 C 81.898438 280.875 83.398438 280.273438 85.199219 280.273438 C 87 280.273438 88.425781 280.875 89.550781 282 C 90.675781 283.125 91.273438 284.625 91.273438 286.425781 L 91.273438 312.675781 L 104.398438 312.675781 L 104.398438 286.425781 C 104.398438 284.625 105 283.199219 106.125 282 C 107.25 280.875 108.75 280.273438 110.550781 280.273438 C 112.351562 280.273438 113.773438 280.875 114.898438 282 C 116.023438 283.125 116.625 284.625 116.625 286.425781 L 116.625 353.398438 C 116.625 355.199219 116.101562 356.699219 114.976562 357.824219 C 113.851562 358.949219 112.351562 359.476562 110.550781 359.476562 C 108.75 359.476562 107.25 358.875 106.125 357.75 C 105 356.625 104.398438 355.125 104.398438 353.398438 L 104.398438 323.773438 L 91.273438 323.773438 L 91.273438 353.398438 C 91.273438 355.199219 90.675781 356.699219 89.550781 357.824219 C 88.425781 358.949219 86.925781 359.476562 85.199219 359.476562 Z M 85.199219 359.476562 " fill-opacity="1" fill-rule="nonzero"/><path fill="#733e0a" d="M 131.925781 359.476562 C 130.125 359.476562 128.625 358.875 127.5 357.75 C 126.375 356.625 125.773438 355.125 125.773438 353.398438 L 125.773438 286.425781 C 125.773438 284.625 126.375 283.199219 127.5 282 C 128.625 280.875 130.125 280.273438 131.925781 280.273438 C 133.726562 280.273438 135.148438 280.875 136.273438 282 C 137.398438 283.125 138 284.625 138 286.425781 L 138 353.398438 C 138 355.199219 137.398438 356.699219 136.273438 357.824219 C 135.148438 358.949219 133.648438 359.476562 131.925781 359.476562 Z M 131.925781 359.476562 " fill-opacity="1" fill-rule="nonzero"/><path fill="#733e0a" d="M 150.300781 325.5 C 148.800781 325.5 147.523438 324.976562 146.398438 323.851562 C 145.273438 322.800781 144.75 321.449219 144.75 319.875 C 144.75 318.300781 145.273438 317.023438 146.398438 315.976562 C 147.449219 314.925781 148.800781 314.324219 150.300781 314.324219 L 164.925781 314.324219 C 166.425781 314.324219 167.773438 314.851562 168.824219 315.976562 C 169.875 317.101562 170.476562 318.375 170.476562 319.875 C 170.476562 321.375 169.949219 322.726562 168.824219 323.851562 C 167.699219 324.976562 166.425781 325.5 164.925781 325.5 Z M 150.300781 325.5 " fill-opacity="1" fill-rule="nonzero"/><path fill="#733e0a" d="M 187.726562 357.898438 C 186.675781 358.949219 185.175781 359.476562 183.226562 359.476562 C 181.273438 359.476562 179.773438 358.949219 178.726562 357.898438 C 177.675781 356.851562 177.148438 355.351562 177.148438 353.398438 L 177.148438 287.101562 C 177.148438 285.148438 177.675781 283.648438 178.726562 282.601562 C 179.773438 281.550781 181.273438 281.023438 183.226562 281.023438 L 195.226562 281.023438 C 201.523438 281.023438 206.101562 282.523438 209.023438 285.449219 C 211.949219 288.375 213.375 292.875 213.375 298.949219 L 213.375 303.75 C 213.375 311.773438 210.675781 316.949219 205.351562 319.125 L 205.351562 319.351562 C 208.273438 320.25 210.375 322.050781 211.648438 324.75 C 212.925781 327.449219 213.523438 331.125 213.523438 335.773438 L 213.523438 347.851562 C 213.523438 349.726562 213.675781 351.226562 213.976562 352.425781 C 214.273438 353.550781 214.425781 354.523438 214.425781 355.5 C 214.425781 358.199219 212.476562 359.550781 208.648438 359.550781 C 204.824219 359.550781 204.226562 358.800781 203.023438 357.375 C 201.824219 355.875 201.226562 353.476562 201.226562 350.023438 L 201.226562 335.175781 C 201.226562 331.574219 200.625 329.101562 199.5 327.675781 C 198.375 326.25 196.351562 325.574219 193.574219 325.574219 L 189.375 325.574219 L 189.375 353.476562 C 189.375 355.425781 188.851562 356.925781 187.800781 357.976562 Z M 189.300781 314.324219 L 193.726562 314.324219 C 196.125 314.324219 198 313.726562 199.199219 312.449219 C 200.398438 311.175781 201.074219 309.074219 201.074219 306.074219 L 201.074219 300.074219 C 201.074219 297.300781 200.550781 295.273438 199.574219 294 C 198.601562 292.726562 197.023438 292.050781 194.851562 292.050781 L 189.226562 292.050781 L 189.226562 314.324219 Z M 189.300781 314.324219 " fill-opacity="1" fill-rule="nonzero"/><path fill="#733e0a" d="M 228 358.800781 C 226.199219 358.800781 224.773438 358.199219 223.574219 357.074219 C 222.449219 355.949219 221.851562 354.449219 221.851562 352.648438 L 221.851562 287.023438 C 221.851562 285.226562 222.449219 283.800781 223.574219 282.601562 C 224.699219 281.398438 226.199219 280.875 228 280.875 L 250.351562 280.875 C 251.925781 280.875 253.273438 281.398438 254.324219 282.449219 C 255.375 283.5 255.898438 284.851562 255.898438 286.425781 C 255.898438 288 255.375 289.351562 254.324219 290.398438 C 253.273438 291.449219 251.925781 291.976562 250.351562 291.976562 L 234.074219 291.976562 L 234.074219 312.523438 L 246 312.523438 C 247.574219 312.523438 248.925781 313.050781 249.976562 314.101562 C 251.023438 315.148438 251.550781 316.5 251.550781 318.074219 C 251.550781 319.648438 251.023438 321 249.976562 322.050781 C 248.925781 323.101562 247.574219 323.625 246 323.625 L 234.074219 323.625 L 234.074219 347.550781 L 250.351562 347.550781 C 251.925781 347.550781 253.273438 348.074219 254.324219 349.125 C 255.375 350.175781 255.898438 351.523438 255.898438 353.101562 C 255.898438 354.675781 255.375 356.023438 254.324219 357.074219 C 253.273438 358.125 251.925781 358.648438 250.351562 358.648438 L 228 358.648438 Z M 228 358.800781 " fill-opacity="1" fill-rule="nonzero"/><path fill="#733e0a" d="M 278.398438 359.925781 C 272.476562 359.925781 268.050781 358.273438 264.976562 354.976562 C 261.898438 351.675781 260.398438 347.023438 260.398438 341.023438 C 260.398438 335.023438 260.925781 337.800781 261.898438 336.75 C 262.949219 335.699219 264.375 335.175781 266.175781 335.175781 C 267.976562 335.175781 269.324219 335.699219 270.375 336.675781 C 271.425781 337.648438 271.949219 339.226562 271.949219 341.324219 C 271.949219 346.425781 274.050781 348.898438 278.324219 348.898438 C 282.601562 348.898438 284.699219 346.273438 284.699219 341.101562 C 284.699219 335.925781 283.949219 335.023438 282.449219 332.550781 C 280.949219 330.074219 278.25 327.074219 274.199219 323.550781 C 269.101562 319.125 265.574219 315.074219 263.625 311.476562 C 261.601562 307.875 260.625 303.824219 260.625 299.324219 C 260.625 294.824219 262.199219 288.375 265.351562 285.074219 C 268.5 281.699219 273 280.050781 278.925781 280.050781 C 284.851562 280.050781 289.050781 281.699219 292.125 285 C 295.199219 288.300781 296.773438 292.574219 296.773438 297.75 C 296.773438 302.925781 294.824219 303.601562 291 303.601562 C 287.175781 303.601562 287.699219 303.074219 286.726562 301.949219 C 285.75 300.824219 285.226562 299.476562 285.226562 297.75 C 285.226562 296.023438 284.699219 294.074219 283.648438 292.949219 C 282.601562 291.824219 281.101562 291.226562 279.148438 291.226562 C 275.023438 291.226562 273 293.699219 273 298.648438 C 273 303.601562 273.75 304.125 275.324219 306.523438 C 276.898438 308.925781 279.601562 311.925781 283.574219 315.449219 C 288.675781 319.949219 292.125 324 294.074219 327.675781 C 296.023438 331.351562 297 335.550781 297 340.425781 C 297 345.300781 295.425781 351.675781 292.273438 355.050781 C 289.125 358.5 284.550781 360.148438 278.550781 360.148438 Z M 278.398438 359.925781 " fill-opacity="1" fill-rule="nonzero"/></svg>